#define max_toggled_width 10
#define max_toggled_height 10
static unsigned char max_toggled_bits[] = {
   0x00, 0x03, 0x80, 0x03, 0xc0, 0x01, 0xe0, 0x00, 0x71, 0x00, 0x3b, 0x00,
   0x1f, 0x00, 0x0f, 0x00, 0x1f, 0x00, 0x3f, 0x00 };
