/* XPM */
static char * close_inactive_xpm[] = {
"25 25 18 1",
" 	c None",
".	c #2D2D2D",
"+	c #434343",
"@	c #323232",
"#	c #303030",
"$	c #464646",
"%	c #707070",
"&	c #646464",
"*	c #606060",
"=	c #4A4A4A",
"-	c #686868",
";	c #353535",
">	c #616161",
",	c #656565",
"'	c #666666",
")	c #474747",
"!	c #4D4D4D",
"~	c #4E4E4E",
".........................",
".........................",
".........................",
".........................",
".........................",
".........................",
".........................",
".........................",
"........+@....#$.........",
".......+%&@..#*%=........",
".......@&%&@#*%-;........",
"........@&%&>%-;.........",
".........@,%%-;..........",
".........#>%%,@..........",
"........#*%-'%&@.........",
".......#*%-;@&%&@........",
".......)%-;..@&%!........",
"........=;....@~.........",
".........................",
".........................",
".........................",
".........................",
".........................",
".........................",
"........................."};
