/* XPM */
static char * hide_active_xpm[] = {
"25 25 3 1",
" 	c None",
".	c #2D2D2D",
"+	c #A9A9A9",
".........................",
".........................",
".........................",
".........................",
".........................",
".........................",
".........................",
".........................",
".........................",
".........................",
".........................",
".........................",
".........................",
".........................",
".........................",
".........................",
".......++++++++++........",
".......++++++++++........",
".........................",
".........................",
".........................",
".........................",
".........................",
".........................",
"........................."};
