/* XPM */
static char * maximize_toggled_active_xpm[] = {
"25 25 15 1",
" 	c None",
".	c #2D2D2D",
"+	c #3D3D3D",
"@	c #676767",
"#	c #A0A0A0",
"$	c #B0B0B0",
"%	c #626262",
"&	c #959595",
"*	c #363636",
"=	c #6B6B6B",
"-	c #A9A9A9",
";	c #AAAAAA",
">	c #A8A8A8",
",	c #ACACAC",
"'	c #A2A2A2",
".........................",
".........................",
".........................",
".........................",
".........................",
".........................",
".........................",
"...............+@........",
"..............+#$%.......",
".............+#$&*.......",
"............+#$&*........",
"...........+#$&*.........",
".......=..+#$&*..........",
".......-=+#$&*...........",
".......-;>$&*............",
".......-,$'*.............",
".......--,-=.............",
".......-----=............",
".........................",
".........................",
".........................",
".........................",
".........................",
".........................",
"........................."};
