/* XPM */
static char * maximize_toggled_inactive_xpm[] = {
"25 25 12 1",
" 	c None",
".	c #2D2D2D",
"+	c #343434",
"@	c #464646",
"#	c #5F5F5F",
"$	c #666666",
"%	c #444444",
"&	c #5A5A5A",
"*	c #313131",
"=	c #494949",
"-	c #626262",
";	c #606060",
".........................",
".........................",
".........................",
".........................",
".........................",
".........................",
".........................",
"...............+@........",
"..............+#$%.......",
".............+#$&*.......",
"............+#$&*........",
"...........+#$&*.........",
".......=..+#$&*..........",
".......$=+#$&*...........",
".......$$-$&*............",
".......$$$;*.............",
".......$$$$=.............",
".......$$$$$=............",
".........................",
".........................",
".........................",
".........................",
".........................",
".........................",
"........................."};
