/* XPM */
static char * close_prelight_xpm[] = {
"25 25 23 1",
" 	c None",
".	c #2D2D2D",
"+	c #6C6C6C",
"@	c #3C3C3C",
"#	c #353535",
"$	c #737373",
"%	c #E7E7E7",
"&	c #C6C6C6",
"*	c #BBBBBB",
"=	c #7D7D7D",
"-	c #C8C8C8",
";	c #D1D1D1",
">	c #454545",
",	c #C7C7C7",
"'	c #BEBEBE",
")	c #C9C9C9",
"!	c #D2D2D2",
"~	c #CACACA",
"{	c #CCCCCC",
"]	c #757575",
"^	c #868686",
"/	c #808080",
"(	c #888888",
".........................",
".........................",
".........................",
".........................",
".........................",
".........................",
".........................",
".........................",
"........+@....#$.........",
".......+%&@..#*%=........",
".......@-%&@#*%;>........",
"........@-%,'%;>.........",
".........@)%%!>..........",
".........#'%%~@..........",
"........#*%!{%&@.........",
".......#*%;>@-%&@........",
".......]%;>..@-%^........",
"......../>....@(.........",
".........................",
".........................",
".........................",
".........................",
".........................",
".........................",
"........................."};
