/* XPM */
static char * close_pressed_xpm[] = {
"25 25 22 1",
" 	c None",
".	c #2D2D2D",
"+	c #5C5C5C",
"@	c #383838",
"#	c #333333",
"$	c #606060",
"%	c #B7B7B7",
"&	c #9E9E9E",
"*	c #969696",
"=	c #696969",
"-	c #A0A0A0",
";	c #A6A6A6",
">	c #3E3E3E",
",	c #9F9F9F",
"'	c #999999",
")	c #A1A1A1",
"!	c #A7A7A7",
"~	c #A2A2A2",
"{	c #626262",
"]	c #6F6F6F",
"^	c #6A6A6A",
"/	c #717171",
".........................",
".........................",
".........................",
".........................",
".........................",
".........................",
".........................",
".........................",
"........+@....#$.........",
".......+%&@..#*%=........",
".......@-%&@#*%;>........",
"........@-%,'%;>.........",
".........@)%%!>..........",
".........#'%%)@..........",
"........#*%!~%&@.........",
".......#*%;>@-%&@........",
".......{%;>..@-%]........",
"........^>....@/.........",
".........................",
".........................",
".........................",
".........................",
".........................",
".........................",
"........................."};
