/* XPM */
static char * maximize_pressed_xpm[] = {
"25 25 15 1",
" 	c None",
".	c #2D2D2D",
"+	c #6B6B6B",
"@	c #A9A9A9",
"#	c #ACACAC",
"$	c #363636",
"%	c #A2A2A2",
"&	c #B0B0B0",
"*	c #959595",
"=	c #A8A8A8",
"-	c #AAAAAA",
";	c #A0A0A0",
">	c #3D3D3D",
",	c #626262",
"'	c #676767",
".........................",
".........................",
".........................",
".........................",
".........................",
".........................",
".........................",
".........................",
"...........+@@@@@........",
"............+@#@@........",
"............$%&#@........",
"...........$*&=-@........",
"..........$*&;>+@........",
".........$*&;>..+........",
"........$*&;>............",
".......$*&;>.............",
"......$*&;>..............",
"......,&;>...............",
".......'>................",
".........................",
".........................",
".........................",
".........................",
".........................",
"........................."};
