/* XPM */
static char * maximize_inactive_xpm[] = {
"25 25 12 1",
" 	c None",
".	c #2D2D2D",
"+	c #494949",
"@	c #666666",
"#	c #313131",
"$	c #606060",
"%	c #5A5A5A",
"&	c #626262",
"*	c #5F5F5F",
"=	c #343434",
"-	c #444444",
";	c #464646",
".........................",
".........................",
".........................",
".........................",
".........................",
".........................",
".........................",
".........................",
"...........+@@@@@........",
"............+@@@@........",
"............#$@@@........",
"...........#%@&@@........",
"..........#%@*=+@........",
".........#%@*=..+........",
"........#%@*=............",
".......#%@*=.............",
"......#%@*=..............",
"......-@*=...............",
".......;=................",
".........................",
".........................",
".........................",
".........................",
".........................",
"........................."};
