#define max_width 10
#define max_height 10
static unsigned char max_bits[] = {
   0xf0, 0x03, 0xe0, 0x03, 0xc0, 0x03, 0xe0, 0x03, 0x70, 0x03, 0x38, 0x02,
   0x1c, 0x00, 0x0e, 0x00, 0x07, 0x00, 0x03, 0x00 };
